<svg width="101" height="159" viewBox="0 0 101 159" fill="none" xmlns="http://www.w3.org/2000/svg">
<rect x="1" y="30" width="100" height="100" rx="20" fill="#FFCC00"/>
<path d="M26.1023 116.2C22.569 116.2 19.269 115.5 16.2023 114.1C13.2023 112.7 10.769 110.567 8.90234 107.7C7.10234 104.833 6.20234 101.233 6.20234 96.9V63.7H21.7023V98.9C21.7023 99.7 21.9023 100.433 22.3023 101.1C22.7023 101.767 23.2357 102.3 23.9023 102.7C24.569 103.1 25.3023 103.3 26.1023 103.3C26.9023 103.3 27.6357 103.1 28.3023 102.7C28.969 102.3 29.5023 101.767 29.9023 101.1C30.3023 100.433 30.5023 99.7 30.5023 98.9V81.8C30.5023 77.6667 31.369 74.1667 33.1023 71.3C34.8357 68.4333 37.2023 66.2667 40.2023 64.8C43.269 63.2667 46.7023 62.5 50.5023 62.5C54.3023 62.5 57.7023 63.2667 60.7023 64.8C63.7023 66.2667 66.069 68.4333 67.8023 71.3C69.5357 74.1667 70.4023 77.6667 70.4023 81.8V98.9C70.4023 99.7 70.6023 100.433 71.0023 101.1C71.4023 101.767 71.9357 102.3 72.6023 102.7C73.3357 103.1 74.1023 103.3 74.9024 103.3C75.7023 103.3 76.4357 103.1 77.1023 102.7C77.769 102.3 78.3023 101.767 78.7023 101.1C79.1023 100.433 79.3023 99.7 79.3023 98.9V63.7H94.8024V96.9C94.8024 101.233 93.869 104.833 92.0024 107.7C90.2023 110.567 87.769 112.7 84.7023 114.1C81.7023 115.5 78.4357 116.2 74.9024 116.2C71.369 116.2 68.069 115.5 65.0023 114.1C62.0023 112.7 59.569 110.567 57.7023 107.7C55.8357 104.833 54.9023 101.233 54.9023 96.9V79.9C54.9023 79.0333 54.7023 78.2667 54.3023 77.6C53.9023 76.9333 53.369 76.4 52.7023 76C52.0357 75.6 51.3023 75.4 50.5023 75.4C49.7023 75.4 48.9357 75.6 48.2023 76C47.5357 76.4 47.0023 76.9333 46.6023 77.6C46.2023 78.2667 46.0023 79.0333 46.0023 79.9V96.9C46.0023 101.233 45.069 104.833 43.2023 107.7C41.4023 110.567 38.969 112.7 35.9023 114.1C32.9023 115.5 29.6357 116.2 26.1023 116.2Z" fill="black"/>
</svg>
